{"title":"1982 - Prince - Capitol Theatre (01-30-82) (WEBRIP) [MP4]","uid":14763867,"size":259271033,"categoryP":"video","categoryS":"music_videos","magnet":"?xt=urn:btih:78b924fc32fcd4a16969ac6196b79711a6a67c55&amp;dn=1982+-+Prince+-+Capitol+Theatre+%2801-30-82%29+%28WEBRIP%29+%5BMP4%5D&amp;tr=udp%3A%2F%2Ftracker.leechers-paradise.org%3A6969&amp;tr=udp%3A%2F%2Fzer0day.ch%3A1337&amp;tr=udp%3A%2F%2Fopen.demonii.com%3A1337&amp;tr=udp%3A%2F%2Ftracker.coppersurfer.tk%3A6969&amp;tr=udp%3A%2F%2Fexodus.desync.com%3A6969","seeders":1,"leechers":0,"uploader":"Iznogoud9","files":5,"time":1464871505,"description":"Prince - Full Concert\r\nRecorded Live: 1/30/1982 - Capitol Theatre (Passaic, NJ)\r\n\r\nSetlist:\r\n\r\n0:00:00 - The Second Coming\r\n0:02:00 - Uptown\r\n0:04:50 - Why You Wanna Treat Me So Bad?\r\n0:12:24 - I Wanna Be Your Lover\r\n0:29:14 - Dirty Mind\r\n0:35:42 - Do Me, Baby\r\n0:45:45 - Controversy\r\n0:53:01 - Let's Work\r\n1:00:55 - Encore Applause\r\n1:02:55 - Jack U Off\r\n1:07:42 - Applause\r\n\r\nFILE INFO:\r\n\r\nComplete name                            : Prince - Capitol Theatre, 01-30-1982 WEBRIP.mp4\r\nFormat                                   : MPEG-4\r\nFormat profile                           : Base Media / Version 2\r\nCodec ID                                 : mp42\r\nFile size                                : 247 MiB\r\nDuration                                 : 1h 7mn\r\nOverall bit rate mode                    : Variable\r\nOverall bit rate                         : 510 Kbps\r\nEncoded date                             : UTC 2016-05-03 07:01:52\r\nTagged date                              : UTC 2016-05-03 07:01:52\r\nWriting application                      : HandBrake 0.10.5 2016021100\r\n\r\nVideo\r\nID                                       : 1\r\nFormat                                   : AVC\r\nFormat/Info                              : Advanced Video Codec\r\nFormat profile                           :   \r\nFormat settings, CABAC                   : Yes\r\nFormat settings, ReFrames                : 16 frames\r\nCodec ID                                 : avc1\r\nCodec ID/Info                            : Advanced Video Coding\r\nDuration                                 : 1h 7mn\r\nBit rate                                 : 378 Kbps\r\nWidth                                    : 640 pixels\r\nHeight                                   : 480 pixels\r\nDisplay aspect ratio                     : 4:3\r\nFrame rate mode                          : Constant\r\nFrame rate                               : 29.970 fps\r\nColor space                              : YUV\r\nChroma subsampling                       : 4:2:0\r\nBit depth                                : 8 bits\r\nScan type                                : Progressive\r\nBits/(Pixel*Frame)                       : 0.041\r\nStream size                              : 183 MiB (74%)\r\nWriting library                          : x264 core 142 r2479 dd79a61\r\nEncoding settings                        : cabac=1 / ref=16 / deblock=1:0:0 / analyse=0x3:0x133 / me=umh / subme=10 / psy=1 / psy_rd=1.00:0.00 / mixed_ref=1 / me_range=24 / chroma_me=1 / trellis=2 / 8x8dct=1 / cqm=0 / deadzone=21,11 / fast_pskip=1 / chroma_qp_offset=-2 / threads=6 / lookahead_threads=1 / sliced_threads=0 / nr=0 / decimate=1 / interlaced=0 / bluray_compat=0 / constrained_intra=0 / bframes=8 / b_pyramid=2 / b_adapt=2 / b_bias=0 / direct=3 / weightb=1 / open_gop=0 / weightp=2 / keyint=300 / keyint_min=30 / scenecut=40 / intra_refresh=0 / rc_lookahead=60 / rc=crf / mbtree=1 / crf=20.0 / qcomp=0.60 / qpmin=0 / qpmax=69 / qpstep=4 / ip_ratio=1.40 / aq=1:1.00\r\nEncoded date                             : UTC 2016-05-03 07:01:52\r\nTagged date                              : UTC 2016-05-03 07:01:52\r\nColor primaries                          : BT.601 NTSC\r\nTransfer characteristics                 : BT.709\r\nMatrix coefficients                      : BT.601\r\n\r\nAudio\r\nID                                       : 2\r\nFormat                                   : AAC\r\nFormat/Info                              : Advanced Audio Codec\r\nFormat profile                           : LC\r\nCodec ID                                 : 40\r\nDuration                                 : 1h 7mn\r\nBit rate mode                            : Variable\r\nBit rate                                 : 126 Kbps\r\nChannel(s)                               : 2 channels\r\nChannel positions                        : Front: L R\r\nSampling rate                            : 44.1 KHz\r\nCompression mode                         : Lossy\r\nStream size                              : 60.9 MiB (25%)\r\nTitle                                    : Stereo\r\nEncoded date                             : UTC 2016-05-03 07:01:52\r\nTagged date                              : UTC 2016-05-03 07:01:52\r\n\r\nSCREENSHOTS:\r\n \nhttps://s33.postimg.org/v2w3gj5pr/Prince_CT_1982_Screenshot_1.png \nhttps://s33.postimg.org/skaefujzj/Prince_CT_1982_Screenshot_2.png \nhttps://s33.postimg.org/7py1y0pm7/Prince_CT_1982_Screenshot_3.png","torrent":{"xt":"urn:btih:78b924fc32fcd4a16969ac6196b79711a6a67c55","amp;dn":"1982+-+Prince+-+Capitol+Theatre+%2801-30-82%29+%28WEBRIP%29+%5BMP4%5D","amp;tr":["udp%3A%2F%2Ftracker.leechers-paradise.org%3A6969","udp%3A%2F%2Fzer0day.ch%3A1337","udp%3A%2F%2Fopen.demonii.com%3A1337","udp%3A%2F%2Ftracker.coppersurfer.tk%3A6969","udp%3A%2F%2Fexodus.desync.com%3A6969"],"infoHash":"78b924fc32fcd4a16969ac6196b79711a6a67c55","infoHashBuffer":{"type":"Buffer","data":[120,185,36,252,50,252,212,161,105,105,172,97,150,183,151,17,166,166,124,85]},"announce":[],"urlList":[]}}